<svg height="91.855" viewBox="0 0 960 91.855" width="960" xmlns="http://www.w3.org/2000/svg"><path d="m108.513 822.071v31.891l.522.128q3.279-4.466 10.891-4.469h29.921v14.566l-30.831-.259q-6.043 0-8.273 2.952t-2.23 9.252v20.868h-17.059v-89.23h71.251v14.43z" fill="#1c1c1c" transform="translate(-91.453 -806.453)"/><path d="m337.377 897-10.5-24.544-25.2-.131q-6.685 0-10.754 2.427a17.039 17.039 0 0 0 -6.556 7.807l-6.834 14.441h-17.706l39.491-89.23h16.268l39.514 89.23zm-16.534-38.581-10.371-24.409a60.96 60.96 0 0 1 -2.749-8.53h-.528a66.451 66.451 0 0 1 -2.75 8.53l-11.291 27.553.519.138a18.3 18.3 0 0 1 10.9-3.281z" fill="#1c1c1c" transform="translate(-201.955 -806.453)"/><path d="m557.814 889.889a41.486 41.486 0 0 1 -15.877-16.4 51.7 51.7 0 0 1 0-47.243 41.512 41.512 0 0 1 15.877-16.4 45.259 45.259 0 0 1 23.159-5.905 46.782 46.782 0 0 1 23.352 5.839 44.507 44.507 0 0 1 16.411 15.683l-13.781 8.526q-9.58-14.174-25.983-14.172a26.77 26.77 0 0 0 -14.172 3.741 25.646 25.646 0 0 0 -9.643 10.562 37.334 37.334 0 0 0 0 31.5 25.613 25.613 0 0 0 9.643 10.559 26.739 26.739 0 0 0 14.172 3.741q16.4 0 25.983-15.219l13.781 8.263a43.3 43.3 0 0 1 -16.212 16.668 48.216 48.216 0 0 1 -46.711.26z" fill="#1c1c1c" transform="translate(-383.354 -803.939)"/><path d="m834.655 822.071v26.374l.519.135a11.074 11.074 0 0 1 4.141-3.088 16.032 16.032 0 0 1 6.75-1.245h28.219v14.563l-29.138-.263c-4.013 0-6.775 1.051-8.264 3.153s-2.227 5.246-2.227 9.446v11.414h52.75v14.44l-52.75-.137v.137h-17.055v-89.23h69.809v14.43z" fill="#1c1c1c" transform="translate(-568.015 -806.453)"/><path d="m1059.593 890.612q-10.359-5.18-15.219-13.844l13.909-8.529q9.839 12.592 26.5 12.6c6.045 0 10.581-1.113 13.649-3.347a10.325 10.325 0 0 0 4.595-8.73 8.424 8.424 0 0 0 -3.284-7.015q-3.284-2.562-11.154-3.735l-13.381-1.974q-13.263-2.1-20.215-8.789t-6.953-17.055a22.852 22.852 0 0 1 4.26-13.594 28 28 0 0 1 12.082-9.315 50.2 50.2 0 0 1 38.569 1.05 40.776 40.776 0 0 1 14.767 12.27l-13.9 8.53a28.422 28.422 0 0 0 -9.85-7.61 28.857 28.857 0 0 0 -12.332-2.628c-5.064 0-9.037 1.029-11.874 3.081a9.3 9.3 0 0 0 -4.263 7.81 7.581 7.581 0 0 0 3.081 6.563q3.087 2.224 10.569 3.412l13.378 2.23q14.436 2.233 21.191 9.38a24.557 24.557 0 0 1 6.762 17.515 23.34 23.34 0 0 1 -4.394 13.975 28.7 28.7 0 0 1 -12.468 9.514 48.045 48.045 0 0 1 -18.832 3.413q-14.827.004-25.193-5.178z" fill="#1c1c1c" transform="translate(-716.847 -803.939)"/><g fill="#9e9e9e"><path d="m1324.206 890.017a39.7 39.7 0 0 1 -15.489-16.2 54.8 54.8 0 0 1 0-47.89 39.74 39.74 0 0 1 15.489-16.209 44.668 44.668 0 0 1 22.833-5.777 46.083 46.083 0 0 1 23.547 5.974 40.6 40.6 0 0 1 15.814 16.333l-8.921 5.12a32.547 32.547 0 0 0 -12.4-13.056 35.288 35.288 0 0 0 -18.035-4.529 31.887 31.887 0 0 0 -17.134 4.592 31.2 31.2 0 0 0 -11.541 12.8 44.364 44.364 0 0 0 0 37.393 31.141 31.141 0 0 0 11.541 12.8 31.831 31.831 0 0 0 17.134 4.592 34.852 34.852 0 0 0 18.035-4.592 32.641 32.641 0 0 0 12.4-13.383l8.921 4.985a40.2 40.2 0 0 1 -15.683 16.734 45.573 45.573 0 0 1 -23.678 6.1 44.637 44.637 0 0 1 -22.833-5.787z" transform="translate(-886.719 -803.939)"/><path d="m1635.374 897-12.993-30.443-24.141-.134q-8.126 0-13.187 3.347t-8.467 11.085l-7.077 16.145h-11.292l39.11-89.23h10.362l38.976 89.23zm-16.79-39.369-10.112-23.621q-3.271-7.606-5.765-14.435h-.528q-2.37 6.959-5.646 14.435l-11.933 27.95.529.266q4.841-4.593 13.112-4.594z" transform="translate(-1054.079 -806.453)"/><path d="m1858.113 897h-10.5v-89.23h10.234l57.211 72.431.528-.135c-.181-2.183-.259-6.253-.259-12.2v-60.095h10.494v89.229h-10.106l-57.345-72.834-.523.135q.273 3.284.267 12.2z" transform="translate(-1244.007 -806.453)"/><path d="m2184.749 897-12.989-30.443-24.147-.134q-8.135 0-13.184 3.347t-8.457 11.085l-7.094 16.145h-11.278l39.1-89.23h10.365l38.976 89.23zm-16.79-39.369-10.112-23.621q-3.264-7.606-5.764-14.435h-.529q-2.369 6.959-5.645 14.435l-11.933 27.95.528.266q4.842-4.593 13.109-4.594z" transform="translate(-1414.632 -806.453)"/><path d="m2451.9 813.41q12.335 5.644 18.57 15.683a46.578 46.578 0 0 1 0 46.576q-6.231 10.045-18.57 15.682t-29.916 5.649h-23.1v-89.23h23.1q17.575.001 29.916 5.64zm2.1 64.559q11.692-8.92 11.683-25.586 0-16.8-11.683-25.651t-32.407-8.861h-12.2v69.021h12.2q20.722 0 32.401-8.923z" transform="translate(-1605.803 -806.453)"/><path d="m2704.347 897-12.993-30.443-24.141-.134q-8.139 0-13.2 3.347t-8.458 11.085l-7.079 16.145h-11.285l39.1-89.23h10.363l38.985 89.23zm-16.8-39.369-10.1-23.621q-3.279-7.606-5.774-14.435h-.519q-2.37 6.959-5.649 14.435l-11.942 27.95.532.266q4.856-4.593 13.121-4.594z" transform="translate(-1755.639 -806.453)"/></g></svg>